<?xml version="1.0" encoding="UTF-8" standalone="no"?>
<!-- Created with Inkscape (http://www.inkscape.org/) -->

<svg
   xmlns:dc="http://purl.org/dc/elements/1.1/"
   xmlns:cc="http://creativecommons.org/ns#"
   xmlns:rdf="http://www.w3.org/1999/02/22-rdf-syntax-ns#"
   xmlns:svg="http://www.w3.org/2000/svg"
   xmlns="http://www.w3.org/2000/svg"
   xmlns:sodipodi="http://sodipodi.sourceforge.net/DTD/sodipodi-0.dtd"
   xmlns:inkscape="http://www.inkscape.org/namespaces/inkscape"
   width="174.36203mm"
   height="30.90476mm"
   viewBox="0 0 174.36203 30.90476"
   version="1.1"
   id="svg8"
   inkscape:version="0.92.4 (5da689c313, 2019-01-14)"
   sodipodi:docname="logo.svg">
  <defs
     id="defs2" />
  <sodipodi:namedview
     id="base"
     pagecolor="#ffffff"
     bordercolor="#666666"
     borderopacity="1.0"
     inkscape:pageopacity="0.0"
     inkscape:pageshadow="2"
     inkscape:zoom="0.98994949"
     inkscape:cx="421.75977"
     inkscape:cy="28.758319"
     inkscape:document-units="mm"
     inkscape:current-layer="flowRoot927"
     showgrid="false"
     showguides="true"
     inkscape:guide-bbox="true"
     inkscape:window-width="1366"
     inkscape:window-height="706"
     inkscape:window-x="1272"
     inkscape:window-y="426"
     inkscape:window-maximized="1"
     fit-margin-top="5"
     fit-margin-left="5"
     fit-margin-right="5"
     fit-margin-bottom="5"
     inkscape:snap-text-baseline="true">
    <sodipodi:guide
       position="111.88095,25.836501"
       orientation="0,1"
       id="guide905"
       inkscape:locked="false" />
    <sodipodi:guide
       position="132.29166,5.4257874"
       orientation="0,1"
       id="guide907"
       inkscape:locked="false" />
  </sodipodi:namedview>
  <metadata
     id="metadata5">
    <rdf:RDF>
      <cc:Work
         rdf:about="">
        <dc:format>image/svg+xml</dc:format>
        <dc:type
           rdf:resource="http://purl.org/dc/dcmitype/StillImage" />
        <dc:title></dc:title>
      </cc:Work>
    </rdf:RDF>
  </metadata>
  <g
     inkscape:label="Livello 1"
     inkscape:groupmode="layer"
     id="layer1"
     transform="translate(-3.7956154,-2.9540301)">
    <flowRoot
       xml:space="preserve"
       id="flowRoot815"
       style="font-style:normal;font-weight:normal;font-size:40px;line-height:1.25;font-family:sans-serif;letter-spacing:0px;word-spacing:0px;fill:#000000;fill-opacity:1;stroke:none"
       transform="scale(0.26458333)"><flowRegion
         id="flowRegion817"><rect
           id="rect819"
           width="567.14288"
           height="120"
           x="115.71429"
           y="191.09111" /></flowRegion><flowPara
         id="flowPara821"></flowPara></flowRoot>    <flowRoot
       xml:space="preserve"
       id="flowRoot823"
       style="font-style:normal;font-weight:normal;font-size:40px;line-height:1.25;font-family:sans-serif;letter-spacing:0px;word-spacing:0px;fill:#000000;fill-opacity:1;stroke:none"
       transform="scale(0.26458333)"><flowRegion
         id="flowRegion825"><rect
           id="rect827"
           width="655.71429"
           height="122.85714"
           x="72.85714"
           y="196.8054" /></flowRegion><flowPara
         id="flowPara829"></flowPara></flowRoot>    <g
       aria-label="MOZAIKU"
       transform="matrix(0.6810361,0,0,0.6810361,-19.190704,-71.360074)"
       style="font-style:normal;font-weight:normal;font-size:40px;line-height:1.25;font-family:sans-serif;letter-spacing:0px;word-spacing:0px;fill:#000000;fill-opacity:1;stroke:none"
       id="flowRoot831">
      <g
         aria-label="MOZAIKU"
         transform="matrix(0.71708049,0,0,0.71708049,-1.473514,94.380743)"
         style="font-style:normal;font-weight:normal;font-size:57.59999847px;line-height:1.25;font-family:sans-serif;letter-spacing:0px;word-spacing:0px;fill:#000000;fill-opacity:1;stroke:none"
         id="flowRoot927">
        <path
           d="m 161.88047,70.307421 q -2.25,1.29375 -4.21875,1.9125 -1.94063,0.61875 -3.68438,0.61875 -1.63125,0 -2.55937,-0.5625 -0.92813,-0.590625 -1.40625,-1.85625 -0.5625,-1.4625 -0.95625,-12.403125 -0.225,-6.778125 -0.42188,-11.025 -3.15,6.1875 -6.66562,13.640625 -3.4875,7.425 -4.10625,8.465625 -0.70313,1.125 -1.575,1.715625 -0.87188,0.590625 -1.82813,0.590625 -1.04062,0 -1.85625,-0.478125 -0.81562,-0.50625 -1.49062,-1.546875 -0.64688,-1.040625 -4.19063,-8.55 -3.51562,-7.509375 -6.75,-13.8375 -0.25312,4.725 -0.47812,12.15 -0.28125,10.0125 -0.95625,11.503125 -0.50625,1.153125 -1.37813,1.659375 -0.87187,0.478125 -2.475,0.478125 -1.6875,0 -3.6,-0.61875 -1.88437,-0.61875 -4.07812,-1.85625 2.22187,-5.0625 3.31875,-12.54375 1.125,-7.509375 1.125,-17.578125 0,-1.884375 -0.3375,-3.375 -0.30938,-1.518749 -0.98438,-2.784374 1.60313,-1.321875 3.23438,-1.9125 1.65937,-0.61875 3.57187,-0.61875 2.78438,0 4.6125,1.546875 1.85625,1.546875 4.92188,7.959374 0.95625,1.9125 2.53125,5.259375 4.89375,10.153125 5.48437,10.153125 0.675,0 4.47188,-8.1 2.19375,-4.6125 3.6,-7.509375 2.8125,-5.765624 4.69687,-7.537499 1.88438,-1.771875 4.52813,-1.771875 1.82812,0 3.54375,0.646875 1.74375,0.646875 3.51562,1.996875 -0.84375,1.434375 -1.2375,3.712499 -0.36562,2.278125 -0.36562,6.13125 0,7.93125 1.125,14.709375 1.15312,6.75 3.31875,11.615625 z"
           style="font-style:normal;font-variant:normal;font-weight:bold;font-stretch:normal;font-size:57.59999847px;font-family:'Maiandra GD';-inkscape-font-specification:'Maiandra GD Bold'"
           id="path935" />
        <path
           d="m 200.80547,51.351171 q 0,-5.540625 -3.23438,-8.8875 -3.20625,-3.375 -8.52187,-3.375 -5.7375,0 -9.16875,3.571875 -3.43125,3.54375 -3.43125,9.50625 0,5.7375 3.29062,9.309375 3.31875,3.54375 8.63438,3.54375 5.37187,0 8.8875,-3.853125 3.54375,-3.853125 3.54375,-9.815625 z m -11.5875,-20.559374 q 10.32187,0 16.39687,5.428124 6.075,5.428125 6.075,14.625 0,4.471875 -1.65937,8.4375 -1.63125,3.9375 -4.78125,7.115625 -3.6,3.571875 -8.07188,5.4 -4.47187,1.8 -9.7875,1.8 -4.52812,0 -8.46562,-1.434375 -3.9375,-1.4625 -6.91875,-4.21875 -3.23438,-2.98125 -4.8375,-6.834375 -1.60313,-3.853125 -1.60313,-8.60625 0,-4.640625 1.71563,-8.60625 1.74375,-3.965625 5.11875,-7.059375 3.20625,-2.953124 7.50937,-4.499999 4.33125,-1.546875 9.30938,-1.546875 z"
           style="font-style:normal;font-variant:normal;font-weight:bold;font-stretch:normal;font-size:57.59999847px;font-family:'Maiandra GD';-inkscape-font-specification:'Maiandra GD Bold'"
           id="path937" />
        <path
           d="m 246.25546,63.557421 q 0.64688,1.35 0.95625,2.559375 0.30938,1.209375 0.30938,2.221875 0,2.446875 -1.51875,3.43125 -1.49063,0.95625 -5.5125,0.95625 -3.43125,0 -9.28125,-0.3375 -5.85,-0.365625 -8.26875,-0.365625 -1.40625,0 -2.7,0.196875 -1.26562,0.16875 -2.50312,0.50625 -1.04063,-1.096875 -1.54688,-2.25 -0.50625,-1.153125 -0.50625,-2.41875 0,-1.18125 0.39375,-2.446875 0.39375,-1.29375 1.15313,-2.559375 1.54687,-2.671875 5.23125,-7.115625 3.7125,-4.471875 4.97812,-6.13125 2.67188,-3.54375 4.13438,-5.9625 1.49062,-2.446875 1.49062,-3.2625 0,-0.590625 -1.2375,-0.84375 -1.20937,-0.253125 -4.275,-0.253125 -3.29062,0 -5.7375,0.39375 -2.41875,0.39375 -3.99375,1.18125 -0.675,-1.603125 -1.0125,-2.840625 -0.3375,-1.265625 -0.3375,-2.19375 0,-2.165624 1.49063,-3.065624 1.49062,-0.9 5.14687,-0.9 1.40625,0 6.35625,0.16875 4.95,0.16875 8.49375,0.16875 1.88438,0 3.4875,-0.08438 1.60312,-0.1125 2.95312,-0.309375 1.09688,1.153125 1.575,2.278125 0.50625,1.096875 0.50625,2.278124 0,3.346875 -7.39687,12.628125 -3.62812,4.55625 -5.65312,7.284375 -2.41875,3.290625 -3.6,5.23125 -1.18125,1.9125 -1.18125,2.503125 0,0.534375 0.7875,0.759375 0.7875,0.225 2.95312,0.225 5.5125,0 8.80312,-0.39375 3.31875,-0.39375 5.0625,-1.2375 z"
           style="font-style:normal;font-variant:normal;font-weight:bold;font-stretch:normal;font-size:57.59999847px;font-family:'Maiandra GD';-inkscape-font-specification:'Maiandra GD Bold'"
           id="path939" />
        <path
           d="m 265.21171,55.401171 h 9.28125 q -0.98438,-2.925 -2.10938,-5.878125 -1.09687,-2.98125 -2.33437,-6.046875 -1.29375,3.009375 -2.50313,5.990625 -1.20937,2.98125 -2.33437,5.934375 z m 27.42187,13.921875 h -0.0562 q -2.27812,1.8 -4.1625,2.671875 -1.88437,0.84375 -3.4875,0.84375 -2.33437,0 -3.85312,-1.85625 -1.49063,-1.884375 -3.825,-8.746875 h -14.90625 q -1.26563,2.503125 -1.88438,4.33125 -0.59062,1.8 -0.59062,3.09375 0,0.421875 0.0844,0.84375 0.0844,0.39375 0.25313,0.84375 -1.37813,0.703125 -2.78438,1.040625 -1.37812,0.3375 -2.8125,0.3375 -2.41875,0 -3.45937,-0.871875 -1.0125,-0.871875 -1.0125,-2.86875 0,-2.221875 5.54062,-13.134375 5.56875,-10.9125 9.19688,-19.4625 -0.47813,-0.956249 -0.87188,-1.603124 -0.39375,-0.646875 -0.7875,-1.125 1.8,-1.0125 3.51563,-1.490625 1.74375,-0.50625 3.43125,-0.50625 2.67187,0 4.30312,1.321875 1.65938,1.29375 3.31875,4.893749 0.675,1.4625 3.68438,9.084375 3.0375,7.621875 5.82187,13.6125 1.29375,2.784375 2.61563,4.95 1.32187,2.1375 2.72812,3.796875 z"
           style="font-style:normal;font-variant:normal;font-weight:bold;font-stretch:normal;font-size:57.59999847px;font-family:'Maiandra GD';-inkscape-font-specification:'Maiandra GD Bold'"
           id="path941" />
        <path
           d="m 310.04296,70.954296 q -2.05313,0.928125 -4.02188,1.378125 -1.96875,0.45 -3.9375,0.45 -2.925,0 -4.05,-1.209375 -1.125,-1.209375 -1.125,-4.44375 0,-0.95625 0.3375,-7.425 0.3375,-6.496875 0.3375,-12.0375 0,-5.625 -0.42187,-8.94375 -0.39375,-3.318749 -1.29375,-5.399999 1.94062,-0.9 3.85312,-1.321875 1.9125,-0.45 3.90938,-0.45 2.89687,0 4.10625,1.153125 1.20937,1.153125 1.20937,3.965624 0,0.984375 -0.39375,7.3125 -0.36562,6.3 -0.36562,11.64375 0,6.13125 0.42187,9.646875 0.45,3.4875 1.43438,5.68125 z"
           style="font-style:normal;font-variant:normal;font-weight:bold;font-stretch:normal;font-size:57.59999847px;font-family:'Maiandra GD';-inkscape-font-specification:'Maiandra GD Bold'"
           id="path943" />
        <path
           d="m 356.13983,65.638671 q -0.7875,3.7125 -2.44687,5.68125 -1.65938,1.96875 -4.02188,1.96875 -1.2375,0 -2.41875,-0.5625 -1.18125,-0.590625 -2.53125,-1.9125 -0.95625,-0.9 -6.1875,-6.721875 -5.20312,-5.85 -9.92812,-10.209375 0,0.5625 -0.0281,1.603125 -0.0281,1.040625 -0.0281,1.51875 0,5.0625 0.42187,8.465625 0.42188,3.403125 1.29375,5.4 -1.9125,0.928125 -3.79687,1.40625 -1.85625,0.45 -3.74063,0.45 -2.8125,0 -3.96562,-1.265625 -1.15313,-1.29375 -1.15313,-4.5 0,-1.096875 0.3375,-7.425 0.3375,-6.328125 0.3375,-11.53125 0,-6.103125 -0.39375,-9.3375 -0.39375,-3.234374 -1.26562,-5.343749 1.99687,-0.871875 3.825,-1.29375 1.82812,-0.421875 3.54375,-0.421875 2.925,0 4.10625,1.153125 1.18125,1.125 1.18125,3.965624 0,0.703125 -0.25313,5.034375 -0.25312,4.303125 -0.42187,7.7625 6.975,-6.440625 10.85625,-10.96875 3.90937,-4.528124 4.86562,-7.368749 3.85313,1.06875 5.70938,2.475 1.88437,1.40625 1.88437,3.234374 0,1.490625 -2.22187,3.99375 -2.19375,2.503125 -11.08125,10.18125 2.75625,2.503125 7.11562,6.69375 8.07188,7.7625 10.40625,7.875 z"
           style="font-style:normal;font-variant:normal;font-weight:bold;font-stretch:normal;font-size:57.59999847px;font-family:'Maiandra GD';-inkscape-font-specification:'Maiandra GD Bold'"
           id="path945" />
        <path
           d="m 382.67577,33.435547 q 2.025,-0.95625 3.79687,-1.40625 1.77188,-0.478125 3.40313,-0.478125 3.375,0 4.69687,2.86875 1.35,2.840624 1.35,10.490624 0,14.990625 -5.0625,21.853125 -5.03437,6.834375 -16.05937,6.834375 -8.775,0 -13.10625,-4.134375 -4.30313,-4.1625 -4.30313,-12.628125 0,-2.7 0.19688,-6.91875 0.225,-4.246875 0.225,-5.821875 0,-3.65625 -0.45,-6.328125 -0.42188,-2.699999 -1.29375,-4.443749 1.99687,-0.871875 3.85312,-1.321875 1.85625,-0.45 3.51563,-0.45 2.89687,0 4.05,1.153125 1.15312,1.125 1.15312,4.021874 0,1.06875 -0.28125,6.46875 -0.25312,5.4 -0.25312,9.703125 0,6.721875 1.77187,9.39375 1.8,2.671875 6.13125,2.671875 5.03438,0 7.3125,-3.9375 2.30625,-3.965625 2.30625,-12.76875 0,-5.34375 -0.73125,-9.028125 -0.73125,-3.712499 -2.22187,-5.793749 z"
           style="font-style:normal;font-variant:normal;font-weight:bold;font-stretch:normal;font-size:57.59999847px;font-family:'Maiandra GD';-inkscape-font-specification:'Maiandra GD Bold'"
           id="path947" />
      </g>
    </g>
    <path
       style="opacity:1;fill:#ff0000;fill-opacity:1;stroke:none;stroke-width:3.49647903;stroke-miterlimit:4;stroke-dasharray:none;stroke-opacity:1"
       d="m 10.591002,8.0198251 h 17.114072 c 0.994644,0 1.795387,0.800743 1.795387,1.795387 V 26.929284 c 0,0.994644 -0.800743,1.795387 -1.795387,1.795387 H 10.591002 c -0.9946436,0 -1.7953866,-0.800743 -1.7953866,-1.795387 V 9.8152121 c 0,-0.994644 0.800743,-1.795387 1.7953866,-1.795387 z"
       id="rect843"
       inkscape:connector-curvature="0" />
    <path
       style="opacity:1;fill:#ffffff;fill-opacity:1;stroke:none;stroke-width:1.55569673;stroke-miterlimit:4;stroke-dasharray:none;stroke-opacity:1"
       d="m 13.889672,12.927052 h 5.621482 c 0.994644,0 1.795387,0.800742 1.795387,1.795387 v 5.621482 c 0,0.994644 -0.800743,1.795386 -1.795387,1.795386 h -5.621482 c -0.994644,0 -1.795387,-0.800742 -1.795387,-1.795386 v -5.621482 c 0,-0.994645 0.800743,-1.795387 1.795387,-1.795387 z"
       id="rect843-9"
       inkscape:connector-curvature="0" />
    <path
       style="opacity:1;fill:#000000;fill-opacity:1;stroke:none;stroke-width:1.55569685;stroke-miterlimit:4;stroke-dasharray:none;stroke-opacity:1"
       d="m 17.065239,15.283528 5.533732,0.989377 c 0.979118,0.175057 1.626431,1.104231 1.451374,2.083349 l -0.989377,5.533732 c -0.175057,0.979118 -1.104231,1.626431 -2.083349,1.451375 l -5.533732,-0.989378 c -0.979118,-0.175056 -1.626431,-1.10423 -1.451374,-2.083348 l 0.989377,-5.533732 c 0.175057,-0.979118 1.104231,-1.626432 2.083349,-1.451375 z"
       id="rect843-9-4"
       inkscape:connector-curvature="0" />
  </g>
</svg>
